<?xml version="1.0" standalone="no"?>
<!DOCTYPE svg PUBLIC "-//W3C//DTD SVG 20010904//EN"
 "http://www.w3.org/TR/2001/REC-SVG-20010904/DTD/svg10.dtd">
<svg version="1.0" xmlns="http://www.w3.org/2000/svg"
 width="954.000000pt" height="1280.000000pt" viewBox="0 0 954.000000 1280.000000"
 preserveAspectRatio="xMidYMid meet">
<metadata>
Created by potrace 1.15, written by Peter Selinger 2001-2017
</metadata>
<g transform="translate(0.000000,1280.000000) scale(0.100000,-0.100000)"
fill="#cddc39" stroke="none">
<path d="M3402 12789 c-113 -22 -198 -127 -290 -359 -17 -41 -145 -340 -286
-665 -169 -389 -272 -613 -301 -656 -51 -74 -152 -178 -217 -221 -24 -16 -277
-148 -563 -292 -286 -145 -739 -374 -1006 -509 -268 -135 -509 -260 -535 -277
-126 -79 -176 -160 -195 -314 -6 -51 -8 -1770 -7 -4671 l3 -4590 24 -52 c29
-65 101 -134 166 -159 49 -19 139 -19 4575 -19 4436 0 4526 0 4575 19 65 25
137 94 166 159 l24 52 0 6175 c0 5976 -1 6177 -18 6228 -23 64 -72 114 -135
139 -45 17 -173 18 -2992 19 -1620 1 -2964 -2 -2988 -7z m3654 -651 c27 -30
34 -46 34 -78 0 -33 -250 -786 -302 -910 -20 -47 -88 -113 -146 -141 l-47 -24
-1615 -3 c-888 -2 -1640 0 -1669 3 -44 6 -62 14 -87 39 -56 56 -54 77 24 307
252 734 252 735 315 783 18 14 53 34 77 45 45 21 55 21 1713 18 l1669 -2 34
-37z"/>
<path d="M1320 11717 c-25 -7 -285 -130 -579 -272 -566 -276 -606 -300 -654
-389 -18 -33 -22 -58 -22 -131 0 -89 0 -91 54 -193 82 -158 160 -209 308 -200
65 4 89 14 608 267 297 145 559 277 582 295 122 92 146 238 66 407 -22 47 -57
104 -78 127 -69 77 -191 115 -285 89z"/>
<path d="M1620 10936 c-1120 -544 -1255 -612 -1278 -647 -31 -45 -25 -100 15
-141 63 -62 24 -77 839 321 521 255 747 370 767 391 63 70 9 190 -85 190 -13
0 -129 -51 -258 -114z"/>
</g>
</svg>
