<?xml version="1.0" encoding="UTF-8" standalone="no"?>
<svg
   xmlns:dc="http://purl.org/dc/elements/1.1/"
   xmlns:cc="http://creativecommons.org/ns#"
   xmlns:rdf="http://www.w3.org/1999/02/22-rdf-syntax-ns#"
   xmlns:svg="http://www.w3.org/2000/svg"
   xmlns="http://www.w3.org/2000/svg"
   xmlns:xlink="http://www.w3.org/1999/xlink"
   version="1.1"
   id="svg6458"
   viewBox="0 0 299.99999 593.34476"
   height="167.45508mm"
   width="84.666664mm">
  <title
     id="title7041">Green Slot Machine Dollar Sign </title>
  <defs
     id="defs6460">
    <linearGradient
       spreadMethod="reflect"
       gradientUnits="userSpaceOnUse"
       y2="2378.8672"
       x2="-5865.6396"
       y1="1280.3553"
       x1="-5865.6396"
       id="linearGradient6358"
       xlink:href="#linearGradient6113" />
    <linearGradient
       id="linearGradient6113">
      <stop
         id="stop6115"
         offset="0"
         style="stop-color:#ccff00;stop-opacity:1;" />
      <stop
         id="stop6117"
         offset="1"
         style="stop-color:#4e6200;stop-opacity:1" />
    </linearGradient>
    <linearGradient
       spreadMethod="reflect"
       gradientUnits="userSpaceOnUse"
       y2="3391.0112"
       x2="-5887.9468"
       y1="2445.8765"
       x1="-5895.4912"
       id="linearGradient6391"
       xlink:href="#linearGradient6113" />
    <linearGradient
       y2="2743.656"
       x2="-5865.6396"
       y1="874.11316"
       x1="-5840.7676"
       spreadMethod="reflect"
       gradientUnits="userSpaceOnUse"
       id="linearGradient6421"
       xlink:href="#linearGradient4695" />
    <linearGradient
       id="linearGradient4695">
      <stop
         id="stop4697"
         style="stop-color:white"
         offset="0" />
      <stop
         id="stop4699"
         style="stop-color:white;stop-opacity:0"
         offset="1" />
    </linearGradient>
  </defs>
  <metadata
     id="metadata6463">
    <rdf:RDF>
      <cc:Work
         rdf:about="">
        <dc:format>image/svg+xml</dc:format>
        <dc:type
           rdf:resource="http://purl.org/dc/dcmitype/StillImage" />
        <dc:title>Green Slot Machine Dollar Sign </dc:title>
        <dc:date>2016-12-16</dc:date>
        <dc:creator>
          <cc:Agent>
            <dc:title>Urs Roesch</dc:title>
          </cc:Agent>
        </dc:creator>
        <cc:license
           rdf:resource="http://creativecommons.org/publicdomain/zero/1.0/" />
        <dc:publisher>
          <cc:Agent>
            <dc:title>Open Clipart</dc:title>
          </cc:Agent>
        </dc:publisher>
        <dc:language>en</dc:language>
        <dc:subject>
          <rdf:Bag>
            <rdf:li>dollar sign</rdf:li>
            <rdf:li>money</rdf:li>
            <rdf:li>slot machine</rdf:li>
            <rdf:li>gambling</rdf:li>
            <rdf:li>green</rdf:li>
            <rdf:li>gradient</rdf:li>
          </rdf:Bag>
        </dc:subject>
        <dc:description>Green slot machine dollar sign.</dc:description>
      </cc:Work>
      <cc:License
         rdf:about="http://creativecommons.org/publicdomain/zero/1.0/">
        <cc:permits
           rdf:resource="http://creativecommons.org/ns#Reproduction" />
        <cc:permits
           rdf:resource="http://creativecommons.org/ns#Distribution" />
        <cc:permits
           rdf:resource="http://creativecommons.org/ns#DerivativeWorks" />
      </cc:License>
    </rdf:RDF>
  </metadata>
  <g
     transform="matrix(0.45292997,0,0,0.45292997,894.31468,679.55721)"
     id="layer1">
    <g
       id="g6424"
       transform="matrix(0.54655219,0,0,0.54655219,1561.0942,-2164.0332)">
      <path
         style="font-style:normal;font-variant:normal;font-weight:500;font-stretch:normal;font-size:medium;line-height:125%;font-family:circus;-inkscape-font-specification:'circus Medium';letter-spacing:0px;word-spacing:0px;fill:#002b00;fill-opacity:1;stroke:none;stroke-width:1px;stroke-linecap:butt;stroke-linejoin:miter;stroke-opacity:1"
         d="m -6040.2168,1214.2969 c -4.7901,0.035 -9.5712,0.3488 -14.3047,0.9238 -51.8245,6.2958 -84.7661,47.8179 -101.0156,84.957 -16.2495,37.1392 -23.0962,77.145 -27.1641,115.6426 -8.1357,76.9953 -2.7148,149.4824 -2.7148,149.4824 a 59.22096,59.22096 0 0 0 75.8848,52.5352 c 0.1307,0.9863 0.2584,1.9811 0.3886,2.9687 -24.2997,8.7368 -47.9292,18.7879 -70.4355,30.4141 -139.123,71.867 -247.0699,211.9309 -280.5996,365.0293 -26.196,119.612 8.4416,247.9919 77.4218,343.8438 83.0156,115.3549 213.1148,160.1507 321.2032,209.3535 -1.0087,43.0349 -2.4764,86.041 -4.3672,129.0078 -0.097,-0.091 -0.1837,-0.1884 -0.2813,-0.2793 a 59.22096,59.22096 0 0 0 -0.33,-0.3028 c -74.2318,-68.1232 -191.1881,-80.7825 -279.1836,-19.1406 -44.4614,31.1457 -67.797,78.3561 -76.0176,127.4688 -8.2207,49.1126 1.1829,111.0238 52.8808,145.748 0.4414,0.2965 0.4605,0.2941 0.8438,0.5508 -0.8982,1.7589 -2.0659,3.8525 -3.7188,6.3242 -13.8396,20.6968 -48.8659,47.6611 -71.3867,96.1289 -5.9214,12.7438 -10.6523,24.4138 -12.4726,40.4824 -1.8204,16.0687 1.9285,43.0042 20.9414,61.0508 19.0128,18.0467 40.0389,19.6127 52.9277,19.3223 12.8888,-0.2904 22.0977,-2.6018 30.8203,-4.9844 17.4452,-4.7651 32.6829,-10.9576 45.459,-15.4824 12.3361,-4.369 23.5979,-5.9811 18.9648,-5.9746 42.586,-0.2575 88.5008,6.4697 137.0411,16.5664 a 59.22096,59.22096 0 0 0 -21.9922,24.7988 c -29.0873,61.5831 -33.0651,144.9173 -19.8907,231.0547 6.5873,43.0687 18.3798,85.5847 43.4942,122.5449 25.1144,36.9603 71.1355,67.9435 123.4902,66.8008 34.3434,-0.7496 66.124,-16.499 87.6074,-37.168 21.4835,-20.669 34.9475,-45.1046 44.877,-69.8398 19.859,-49.4704 26.0316,-101.9949 26.5137,-144.4531 0.1616,-14.2372 0.2736,-24.4999 0.4238,-37.8242 0.1486,13.1981 0.2622,23.5865 0.4238,37.8242 0.4821,42.4577 6.6553,94.9827 26.5137,144.4531 9.9292,24.7352 23.3917,49.1707 44.875,69.8398 21.4833,20.6692 53.264,36.4184 87.6074,37.168 52.3547,1.1427 98.3758,-29.8405 123.4903,-66.8008 25.1144,-36.9602 36.9069,-79.4762 43.4941,-122.5449 12.5686,-82.1763 9.4707,-161.7536 -16.0918,-222.375 219.4889,-112.2332 317.4626,-322.5565 294.2031,-518.2344 -23.3595,-196.5192 -168.4945,-378.5875 -406.3262,-436.2597 -0.3865,-0.1 -0.7793,-0.1915 -1.166,-0.291 0.2244,-8.7126 0.4141,-17.4487 0.6719,-26.1348 14.4473,8.7515 30.8626,15.0787 48.0723,19.043 44.4945,10.2492 93.555,12.3339 141.1777,-3.0079 47.6228,-15.3417 94.1164,-53.6963 112.6094,-110.5507 24.4749,-75.2453 8.9826,-145.1534 -4.3125,-203.4551 -12.1543,-53.2991 -21.9432,-97.9954 -17.0488,-136.5 9.7787,-15.0212 16.8898,-32.0451 15.4628,-55.5156 -1.8577,-30.5559 -31.9823,-60.548 -55.6601,-66.6993 -41.9909,-10.9088 -72.5707,2.4446 -98.75,27.8008 -15.5178,5.6691 -30.6153,4.9925 -51.7402,-0.7187 -14.9031,-4.0291 -31.7612,-11.2745 -49.4844,-19.8516 3.4026,-27.9575 6.9294,-55.5706 10.6855,-82.5098 l 71.7989,-21.2246 c 0,0 5.4202,-72.4871 -2.7149,-149.4824 -4.0676,-38.4976 -10.9128,-78.5033 -27.1621,-115.6426 -16.2493,-37.1392 -49.1911,-78.6612 -101.0156,-84.957 -38.045,-4.6218 -75.3447,10.7165 -99.9531,32.4629 -24.6085,21.7464 -40.3952,48.42 -52.6407,76.1289 -24.491,55.4179 -34.7118,116.5428 -35.3203,166.6934 -0.4427,36.4903 -0.7916,65.8685 -1.1621,96.8808 -0.3593,-0.031 -0.7188,-0.056 -1.0781,-0.086 -0.3686,-30.8811 -0.7179,-60.3359 -1.1602,-96.7949 -0.5894,-48.5832 -10.3049,-107.4507 -33.0703,-161.4805 -11.3827,-27.0149 -25.9832,-53.0451 -48.2051,-75.082 -22.2218,-22.037 -55.3732,-39.9136 -92.332,-39.6465 z"
         id="path6331" />
      <path
         style="font-style:normal;font-variant:normal;font-weight:500;font-stretch:normal;font-size:medium;line-height:125%;font-family:circus;-inkscape-font-specification:'circus Medium';letter-spacing:0px;word-spacing:0px;fill:url(#linearGradient6358);fill-opacity:1;stroke:none;stroke-width:1px;stroke-linecap:butt;stroke-linejoin:miter;stroke-opacity:1"
         d="m -6039.7895,1273.5105 c -2.488,0.018 -5.0178,0.1814 -7.5918,0.4941 -98.5296,11.9697 -78.9688,287.0996 -78.9688,287.0996 0,0 52.4852,-69.6387 70.7442,12.4902 4.0733,28.9918 7.943,58.5801 11.6074,88.6876 -38.0842,10.057 -74.6886,24.1331 -108.4024,41.5488 -121.4402,62.7326 -220.6914,191.5665 -249.9336,325.0879 -21.6935,99.0535 8.4103,214.2839 67.6407,296.5879 76.5263,106.3377 213.3947,147.2641 333.334,206.8906 -2.5481,145.3139 -9.9452,291.2969 -22.8008,433.9512 -26.9919,-14.6727 -51.9376,-32.2248 -73.4141,-51.959 24.9386,-52.2545 42.641,-124.7778 -8.9941,-172.8887 -51.9363,-47.6625 -142.9558,-57.8507 -205.1719,-14.2676 -53.488,37.4689 -76.0529,140.6609 -24.0938,175.5606 81.9081,55.0156 -28.4973,123.1359 -53.5781,177.1133 -35.1547,75.6576 62.423,11.056 101.4883,10.2265 79.5055,-0.673 162.0017,19.1433 246.3359,40.2129 -4.1062,33.3526 -8.5278,66.4329 -13.2929,99.1719 -18.2335,68.2823 -56.5537,36.0014 -63,-13.4961 -35.0311,74.1673 -35.4536,338.6976 92.2578,335.9101 76.2486,-1.6642 100.2558,-120.3346 101.0801,-192.9316 0.8558,-75.3765 1.5307,-136.3107 2.2441,-200.2656 38.0994,8.0146 76.4596,14.4918 114.9805,17.7812 0.6616,59.1225 1.265,113.8005 2.0449,182.4844 0.8243,72.597 24.8295,191.2674 101.0781,192.9316 127.7114,2.7875 127.2889,-261.7428 92.2578,-335.9101 -6.4463,49.4975 -44.7645,81.7784 -62.998,13.4961 -2.6812,-18.4211 -5.2493,-36.9572 -7.7207,-55.5801 32.8176,-4.6933 65.6756,-12.9718 98.5117,-25.875 403.2611,-203.6218 335.4725,-740.8934 -96.5898,-845.6133 -15.4985,-4.0083 -31.4223,-7.9183 -47.5645,-11.8984 2.369,-126.7858 8.2763,-251.2816 17.2969,-370.7383 27.4078,21.6345 48.0678,50.4478 54.5136,86.8105 11.5032,64.893 -48.3385,150.4094 50.6407,173.209 72.3311,16.6613 158.8819,3.6154 184.1836,-74.1718 37.4406,-115.1067 -45.5957,-228.6606 -21.416,-344.4922 38.1716,-49.73 -18.6882,-55.0886 -48.2247,-21.9414 -67.1935,33.4353 -137.1761,-3.1677 -199.3027,-36.1993 5.0313,-44.2503 10.4983,-87.468 16.3945,-129.4336 18.259,-82.1289 70.7442,-12.4902 70.7442,-12.4902 0,0 19.5628,-275.1299 -78.9668,-287.0996 -82.3683,-10.0064 -120.5559,134.2529 -121.5625,217.2207 -0.7548,62.2183 -1.3253,110.5691 -1.9824,165.209 -38.4266,-9.1044 -78.232,-12.7519 -117.9981,-11.6445 -0.6172,-51.254 -1.1402,-95.7316 -1.8418,-153.5645 -0.9751,-80.375 -36.8429,-218.2722 -113.9687,-217.7148 z m 182.4199,596.3691 c 7.4095,0.01 14.717,0.3988 21.8633,1.1953 8.8115,0.9822 17.8432,2.4775 26.9375,4.461 -1.7823,156.4634 -3.0307,281.8748 -3.6973,393.0703 -36.6148,-10.5834 -72.567,-22.9629 -105.543,-39.0371 -0.6967,-100.3459 -1.8467,-213.7887 -3.4043,-350.7325 21.1625,-5.881 42.9062,-8.9714 63.8438,-8.957 z m -160.5215,62.1758 c 5.6723,77.1581 10.0371,156.3787 13,236.9082 -8.8813,-9.0549 -17.0967,-18.8131 -24.5156,-29.3867 -33.3337,-47.5078 -44.8351,-123.2556 -15.625,-173.4043 7.2382,-12.4268 16.4499,-23.8376 27.1406,-34.1172 z m 100.7246,647.1348 c 32.4619,17.0961 69.1268,30.7866 104.7149,45.4023 0.5552,110.5304 1.6814,233.6028 3.3164,387.2422 -35.8201,4.7165 -73.9191,2.1328 -111.4805,-6.3477 1.822,-171.7769 2.9956,-304.9399 3.4492,-426.2968 z m 192.5215,89.1328 c 29.0172,19.2728 52.4918,43.1311 65.3887,75.705 27.6899,69.9372 10.62,174.9001 -46.1485,225.1875 -8.9862,-99.1222 -15.3264,-199.8691 -19.2402,-300.8925 z"
         id="path6322" />
      <path
         style="font-style:normal;font-variant:normal;font-weight:500;font-stretch:normal;font-size:medium;line-height:125%;font-family:circus;-inkscape-font-specification:'circus Medium';letter-spacing:0px;word-spacing:0px;fill:url(#linearGradient6391);fill-opacity:1;stroke:none;stroke-width:1px;stroke-linecap:butt;stroke-linejoin:miter;stroke-opacity:1"
         d="m -5690.209,1293.9512 c -12.0395,-0.2167 -21.841,4.2315 -32.2695,13.4472 -11.9184,10.5323 -23.319,27.8036 -32.5215,48.627 -18.4051,41.6467 -28.0584,96.9601 -28.5254,135.4473 -0.7547,62.2148 -1.3253,110.5644 -1.9824,165.207 a 20.477082,20.477082 0 0 1 -25.1934,19.6777 c -36.5337,-8.6559 -74.5715,-12.1635 -112.707,-11.1015 a 20.477082,20.477082 0 0 1 -21.043,-20.2207 c -0.6172,-51.2574 -1.1402,-95.7336 -1.8418,-153.5625 -0.4523,-37.2845 -9.4901,-90.3644 -26.8242,-131.5039 -8.667,-20.5698 -19.4227,-38.0787 -30.8808,-49.4415 -11.4582,-11.3627 -22.4736,-16.6381 -35.6426,-16.5429 -1.692,0.012 -3.4442,0.1237 -5.2715,0.3457 -15.2301,1.8502 -27.0571,13.6554 -37.6172,37.791 -10.5601,24.1356 -17.3335,58.0941 -20.9238,92.0723 -3.6525,34.5662 -4.2153,68.7661 -3.9004,94.2734 0.318,-0.153 0.5922,-0.3429 0.914,-0.4922 11.4481,-5.3091 29.149,-7.5955 43.4805,2.0137 14.3315,9.6091 22.1911,26.0029 27.3399,49.1621 a 20.477082,20.477082 0 0 1 0.289,1.5937 c 4.0918,29.1232 7.9774,58.836 11.6563,89.0625 a 20.477082,20.477082 0 0 1 -15.0957,22.2715 c -36.6557,9.6799 -71.8929,23.2366 -104.2344,39.9434 -115.326,59.5741 -211.5704,184.5252 -239.3301,311.2773 -20.1366,91.9449 8.4006,202.6286 64.2598,280.2481 71.2202,98.9646 203.675,139.7876 325.8301,200.5156 a 20.477082,20.477082 0 0 1 11.3574,18.6934 c -2.5561,145.768 -9.9762,292.231 -22.8809,435.4296 a 20.477082,20.477082 0 0 1 -30.1719,16.1504 c -28.3609,-15.4169 -54.6491,-33.8848 -77.4882,-54.8711 a 20.477082,20.477082 0 0 1 -4.625,-23.8945 c 11.6945,-24.5038 21.2964,-53.4726 22.2343,-79.9062 0.9371,-26.4088 -5.4903,-49.3775 -26.6523,-69.127 -44.2403,-40.5443 -126.2417,-49.8583 -179.5215,-12.5351 -20.6178,14.4429 -38.1361,45.4431 -43.1426,75.3535 -5.0065,29.9103 1.63,54.9646 18.7168,66.4414 23.8679,16.0314 37.6036,37.2659 38.7422,59.2285 1.1387,21.9625 -8.4065,41.0471 -19.8066,58.0957 -22.8002,34.0972 -56.2719,65.8504 -65.3614,85.4121 -1.0614,2.2844 -1.5537,3.8315 -2.2792,5.6992 0.4462,-0.1145 0.7652,-0.1552 1.2265,-0.2812 10.7115,-2.9259 25.3083,-8.5745 39.8555,-13.7266 14.5472,-5.152 28.4568,-10.2392 43.6816,-10.5625 a 20.477082,20.477082 0 0 1 0.2617,0 c 83.0272,-0.7028 167.0211,19.7233 251.4727,40.8223 a 20.477082,20.477082 0 0 1 15.3594,22.3672 c -4.1234,33.4922 -8.5653,66.7213 -13.3535,99.6191 a 20.477082,20.477082 0 0 1 -0.4805,2.334 c -5.1233,19.1862 -11.5918,33.2843 -22.4883,43.3887 -10.8965,10.1043 -29.0342,13.1027 -41.6426,7.4062 -4.9965,-2.2575 -9.2387,-5.2389 -13.1054,-8.5684 -5.441,38.1963 -7.0173,88.1714 -0.2051,132.711 5.4467,35.6115 15.9373,68.1777 30.6328,89.8047 14.6955,21.6269 30.9731,32.4606 55.8379,31.9179 13.7783,-0.3007 24.0498,-5.2569 34.0976,-14.9238 10.0479,-9.6669 19.0841,-24.4433 26.1719,-42.0996 14.1757,-35.3127 20.3953,-81.5013 20.7832,-115.6699 0.8558,-75.3735 1.5308,-136.3058 2.2442,-200.2617 a 20.477082,20.477082 0 0 1 24.6894,-19.8086 c 37.5648,7.9021 75.1091,14.2244 112.5078,17.4179 a 20.477082,20.477082 0 0 1 18.7324,20.1719 c 0.6617,59.1244 1.2651,113.8 2.045,182.4805 0.3879,34.1688 6.606,80.3573 20.7812,115.6699 7.0876,17.6563 16.1262,32.4328 26.1738,42.0996 10.0477,9.6669 20.3175,14.6231 34.0958,14.9238 24.8647,0.5427 41.1424,-10.291 55.8378,-31.9179 14.6955,-21.627 25.1862,-54.1932 30.6329,-89.8047 6.812,-44.5388 5.2357,-94.5131 -0.2051,-132.709 -3.8661,3.3287 -8.1079,6.3093 -13.1035,8.5664 -12.6083,5.6967 -30.7464,2.6982 -41.6426,-7.4062 -10.8962,-10.1045 -17.365,-24.2026 -22.4883,-43.3887 a 20.477082,20.477082 0 0 1 -0.4805,-2.334 c -2.6947,-18.5143 -5.2743,-37.1356 -7.7558,-55.8359 a 20.477082,20.477082 0 0 1 17.3984,-22.9629 c 31.0998,-4.4477 62.0933,-12.2595 93.1035,-24.3692 194.0647,-98.4285 272.4685,-274.3061 252.9258,-438.7148 -19.5741,-164.6735 -137.5523,-317.7068 -346.0312,-368.2363 a 20.477082,20.477082 0 0 1 -0.3047,-0.076 c -15.3321,-3.9653 -31.1851,-7.8586 -47.3399,-11.8418 a 20.477082,20.477082 0 0 1 -15.5683,-20.2617 c 2.3762,-127.1712 8.301,-252.044 17.3515,-371.8965 a 20.477082,20.477082 0 0 1 33.1016,-14.5313 c 30.4197,24.012 54.5545,57.3725 61.9883,99.3086 7.0864,39.9769 -6.1925,78.8783 -7.1817,106.6914 -0.4945,13.9066 1.4415,23.6684 6.4336,30.8653 4.9922,7.1968 14.2476,14.3033 35.8242,19.2734 33.2856,7.6673 69.7769,8.164 98.8536,-1.2031 29.0767,-9.3671 50.6328,-26.6664 61.2636,-59.3496 16.7305,-51.436 6.7475,-104.1938 -6.2265,-161.0879 -12.9741,-56.8941 -29.0831,-117.4386 -15.7617,-181.2539 a 20.477082,20.477082 0 0 1 3.8007,-8.2832 c 2.5553,-3.3291 4.1524,-6.0251 5.4024,-8.3867 -6.397,1.7155 -15.6449,5.2916 -22.0977,12.5332 a 20.477082,20.477082 0 0 1 -6.166,4.7089 c -38.8029,19.3083 -79.2616,18.1983 -116.0156,8.2618 -36.754,-9.9366 -70.9105,-28.1728 -102.0196,-44.7129 a 20.477082,20.477082 0 0 1 -10.7324,-20.3907 c 5.0504,-44.4176 10.5399,-87.814 16.4629,-129.9707 a 20.477082,20.477082 0 0 1 0.2891,-1.5937 c 5.1488,-23.1592 13.0083,-39.553 27.3398,-49.1621 14.3315,-9.6092 32.0324,-7.3228 43.4805,-2.0137 0.3263,0.1513 0.5928,0.3412 0.9141,0.4961 0.3152,-25.5078 -0.248,-59.7089 -3.9004,-94.2773 -3.5901,-33.9782 -10.362,-67.9387 -20.9219,-92.0743 -10.5599,-24.1356 -22.3871,-35.9388 -37.6172,-37.789 -1.8197,-0.2211 -3.5848,-0.348 -5.3047,-0.3789 z m -167.1465,555.4531 a 20.477082,20.477082 0 0 1 0.014,0 c 8.1076,0.011 16.1591,0.4349 24.1035,1.3203 9.5545,1.065 19.2746,2.6783 29.0332,4.8066 a 20.477082,20.477082 0 0 1 16.1113,20.2364 c -1.7821,156.4477 -3.031,281.8264 -3.6972,392.9609 a 20.477082,20.477082 0 0 1 -26.1602,19.5469 c -37.2717,-10.7733 -74.3051,-23.4745 -108.8281,-40.3027 a 20.477082,20.477082 0 0 1 -11.5039,-18.2618 c -0.6964,-100.2966 -1.8469,-213.7127 -3.4043,-350.6425 a 20.477082,20.477082 0 0 1 14.9922,-19.959 c 22.8656,-6.3543 46.3777,-9.7209 69.3398,-9.7051 z m -159.832,62.1895 a 20.477082,20.477082 0 0 1 19.7168,18.9589 c 5.6911,77.4142 10.0691,156.8834 13.041,237.6582 a 20.477082,20.477082 0 0 1 -35.0781,15.0899 c -9.6107,-9.7986 -18.5612,-20.4221 -26.6602,-31.9649 -37.9393,-54.0717 -51.4564,-135.5517 -16.5566,-195.4687 8.2971,-14.245 18.7309,-27.1186 30.6426,-38.5723 a 20.477082,20.477082 0 0 1 14.8945,-5.7011 z m 100.7012,647.1328 a 20.477082,20.477082 0 0 1 8.8613,2.3476 c 30.8253,16.2342 66.9499,29.792 102.9531,44.5781 a 20.477082,20.477082 0 0 1 12.6953,18.836 c 0.5549,110.4676 1.6816,233.5038 3.3164,387.1269 a 20.477082,20.477082 0 0 1 -17.8007,20.5196 c -38.6427,5.0881 -79.0728,2.263 -118.6641,-6.6758 a 20.477082,20.477082 0 0 1 -15.9648,-20.1895 c 1.8218,-171.7579 2.9959,-304.8753 3.4492,-426.1562 a 20.477082,20.477082 0 0 1 21.1543,-20.3867 z m 191.6523,89.123 a 20.477082,20.477082 0 0 1 11.5176,3.416 c 31.265,20.7658 58.33,47.9257 73.0976,85.2246 15.6657,39.5673 18.234,86.6251 9.67,131.3496 -8.564,44.7245 -28.3648,87.5444 -61.2793,116.7012 a 20.477082,20.477082 0 0 1 -33.9668,-13.4785 c -9.0207,-99.5022 -15.3821,-200.5953 -19.3086,-301.9473 a 20.477082,20.477082 0 0 1 20.2695,-21.2656 z"
         id="path6382" />
      <path
         style="font-style:normal;font-variant:normal;font-weight:500;font-stretch:normal;font-size:medium;line-height:125%;font-family:circus;-inkscape-font-specification:'circus Medium';letter-spacing:0px;word-spacing:0px;fill:url(#linearGradient6421);fill-opacity:1;stroke:none;stroke-width:1px;stroke-linecap:butt;stroke-linejoin:miter;stroke-opacity:1"
         d="m -6039.7891,1273.5098 c -2.488,0.018 -5.0178,0.1814 -7.5918,0.4941 -98.5296,11.9697 -78.9687,287.0996 -78.9687,287.0996 0,0 52.4851,-69.6386 70.7441,12.4903 4.0733,28.9918 7.9431,58.58 11.6075,88.6874 -38.0842,10.0571 -74.6886,24.1332 -108.4024,41.5489 -121.4402,62.7326 -220.6914,191.5665 -249.9336,325.0879 -21.6935,99.0535 8.4102,214.2839 67.6406,296.5879 28.0039,38.913 64.0925,69.0619 104.4707,94.5781 l 774.1426,0 c -57.8366,-53.7836 -133.0544,-95.4335 -224.6543,-117.6348 -15.4985,-4.0083 -31.4222,-7.9183 -47.5644,-11.8984 2.369,-126.7858 8.2762,-251.2816 17.2968,-370.7383 27.4078,21.6345 48.0679,50.4478 54.5137,86.8105 11.5032,64.893 -48.3386,150.4094 50.6406,173.209 72.3311,16.6613 158.8819,3.6154 184.1836,-74.1718 37.4406,-115.1067 -45.5957,-228.6606 -21.416,-344.4922 38.1716,-49.73 -18.6881,-55.0886 -48.2246,-21.9414 -67.1935,33.4353 -137.1761,-3.1677 -199.3027,-36.1993 5.0313,-44.2503 10.4983,-87.468 16.3945,-129.4335 18.259,-82.1289 70.7442,-12.4903 70.7441,-12.4903 0,0 19.5629,-275.1299 -78.9667,-287.0996 -82.3683,-10.0064 -120.5559,134.2529 -121.5625,217.2207 -0.7548,62.2183 -1.3254,110.5691 -1.9825,165.209 -38.4266,-9.1044 -78.2319,-12.7519 -117.998,-11.6445 -0.6172,-51.254 -1.1402,-95.7316 -1.8418,-153.5645 -0.9751,-80.375 -36.843,-218.2722 -113.9688,-217.7148 z m 182.42,596.3691 c 7.4095,0.01 14.7169,0.3988 21.8632,1.1953 8.8115,0.9822 17.8432,2.4775 26.9375,4.461 -1.7823,156.4634 -3.0306,281.8748 -3.6972,393.0703 -36.6148,-10.5834 -72.567,-22.9629 -105.543,-39.0371 -0.6967,-100.3459 -1.8467,-213.7887 -3.4043,-350.7325 21.1625,-5.881 42.9062,-8.9714 63.8438,-8.957 z m -160.5215,62.1758 c 5.6723,77.1581 10.0371,156.3787 13,236.9082 -8.8813,-9.0549 -17.0967,-18.8131 -24.5156,-29.3867 -33.3338,-47.5078 -44.8351,-123.2556 -15.625,-173.4043 7.2381,-12.4268 16.4499,-23.8376 27.1406,-34.1172 z"
         id="path6416" />
    </g>
  </g>
</svg>
